<svg width="194" height="511" viewBox="0 0 194 511" fill="none" xmlns="http://www.w3.org/2000/svg">
<path d="M170 328.492C170 429.284 165.81 510.992 115 510.992C137.5 447 77.5 385.5 23 328.492C23 227.7 51.6898 225 102.5 225C153.31 225 170 227.7 170 328.492Z" fill="#323339"/>
<path d="M17.6879 179.815C34.9145 80.5059 53.0075 0.716145 103.07 9.40021C69.9641 68.6053 118.57 139.455 162.525 204.939C145.298 304.248 116.569 302.005 66.5067 293.321C16.4441 284.637 0.461348 279.124 17.6879 179.815Z" fill="#323339"/>
<path d="M47 86.5556C47 85.3473 47.48 84.1886 48.3343 83.3343C49.1886 82.48 50.3473 82 51.5556 82H83.4444C84.6527 82 85.8114 82.48 86.6657 83.3343C87.52 84.1886 88 85.3473 88 86.5556V109.333C88 110.542 87.52 111.7 86.6657 112.555C85.8114 113.409 84.6527 113.889 83.4444 113.889H51.5556C50.3473 113.889 49.1886 113.409 48.3343 112.555C47.48 111.7 47 110.542 47 109.333V86.5556Z" stroke="white" stroke-width="2" stroke-linecap="round" stroke-linejoin="round"/>
<path d="M47 86.5556L67.5 100.222L88 86.5556" stroke="white" stroke-width="2" stroke-linecap="round" stroke-linejoin="round"/>
<path d="M120 366.556C120 365.347 120.48 364.189 121.334 363.334C122.189 362.48 123.347 362 124.556 362H156.444C157.653 362 158.811 362.48 159.666 363.334C160.52 364.189 161 365.347 161 366.556V389.333C161 390.542 160.52 391.7 159.666 392.555C158.811 393.409 157.653 393.889 156.444 393.889H124.556C123.347 393.889 122.189 393.409 121.334 392.555C120.48 391.7 120 390.542 120 389.333V366.556Z" stroke="white" stroke-width="2" stroke-linecap="round" stroke-linejoin="round"/>
<path d="M120 366.556L140.5 380.222L161 366.556" stroke="white" stroke-width="2" stroke-linecap="round" stroke-linejoin="round"/>
<path d="M98.375 168.458C98.375 170.083 99.0203 171.641 100.169 172.789C101.318 173.938 102.876 174.583 104.5 174.583C106.124 174.583 107.682 173.938 108.831 172.789C109.98 171.641 110.625 170.083 110.625 168.458C110.625 166.834 109.98 165.276 108.831 164.127C107.682 162.979 106.124 162.333 104.5 162.333C102.876 162.333 101.318 162.979 100.169 164.127C99.0203 165.276 98.375 166.834 98.375 168.458Z" stroke="white" stroke-width="2" stroke-linecap="round" stroke-linejoin="round"/>
<path d="M116.05 180.008L107.387 188.671C106.621 189.436 105.583 189.865 104.501 189.865C103.419 189.865 102.381 189.436 101.615 188.671L92.9501 180.008C90.666 177.724 89.1104 174.813 88.4803 171.645C87.8501 168.477 88.1736 165.193 89.4099 162.208C90.6461 159.224 92.7396 156.673 95.4256 154.878C98.1116 153.084 101.269 152.126 104.5 152.126C107.73 152.126 110.888 153.084 113.574 154.878C116.26 156.673 118.354 159.224 119.59 162.208C120.826 165.193 121.15 168.477 120.519 171.645C119.889 174.813 118.334 177.724 116.05 180.008Z" stroke="white" stroke-width="2" stroke-linecap="round" stroke-linejoin="round"/>
<path d="M85.375 346.458C85.375 348.083 86.0203 349.641 87.169 350.789C88.3176 351.938 89.8755 352.583 91.5 352.583C93.1245 352.583 94.6824 351.938 95.831 350.789C96.9797 349.641 97.625 348.083 97.625 346.458C97.625 344.834 96.9797 343.276 95.831 342.127C94.6824 340.979 93.1245 340.333 91.5 340.333C89.8755 340.333 88.3176 340.979 87.169 342.127C86.0203 343.276 85.375 344.834 85.375 346.458Z" stroke="white" stroke-width="2" stroke-linecap="round" stroke-linejoin="round"/>
<path d="M103.05 358.008L94.3868 366.671C93.6211 367.436 92.5831 367.865 91.5009 367.865C90.4186 367.865 89.3806 367.436 88.615 366.671L79.9501 358.008C77.666 355.724 76.1104 352.813 75.4803 349.645C74.8501 346.477 75.1736 343.193 76.4099 340.208C77.6461 337.224 79.7396 334.673 82.4256 332.878C85.1116 331.084 88.2695 330.126 91.4998 330.126C94.7302 330.126 97.8881 331.084 100.574 332.878C103.26 334.673 105.354 337.224 106.59 340.208C107.826 343.193 108.15 346.477 107.519 349.645C106.889 352.813 105.334 355.724 103.05 358.008Z" stroke="white" stroke-width="2" stroke-linecap="round" stroke-linejoin="round"/>
<path d="M134.375 446.458C134.375 448.083 135.02 449.641 136.169 450.789C137.318 451.938 138.876 452.583 140.5 452.583C142.124 452.583 143.682 451.938 144.831 450.789C145.98 449.641 146.625 448.083 146.625 446.458C146.625 444.834 145.98 443.276 144.831 442.127C143.682 440.979 142.124 440.333 140.5 440.333C138.876 440.333 137.318 440.979 136.169 442.127C135.02 443.276 134.375 444.834 134.375 446.458Z" stroke="white" stroke-width="2" stroke-linecap="round" stroke-linejoin="round"/>
<path d="M152.05 458.008L143.387 466.671C142.621 467.436 141.583 467.865 140.501 467.865C139.419 467.865 138.381 467.436 137.615 466.671L128.95 458.008C126.666 455.724 125.11 452.813 124.48 449.645C123.85 446.477 124.174 443.193 125.41 440.208C126.646 437.224 128.74 434.673 131.426 432.878C134.112 431.084 137.269 430.126 140.5 430.126C143.73 430.126 146.888 431.084 149.574 432.878C152.26 434.673 154.354 437.224 155.59 440.208C156.826 443.193 157.15 446.477 156.519 449.645C155.889 452.813 154.334 455.724 152.05 458.008Z" stroke="white" stroke-width="2" stroke-linecap="round" stroke-linejoin="round"/>
<path d="M125.824 270H135.471L140.294 282.059L134.265 285.676C136.848 290.914 141.086 295.152 146.324 297.735L149.941 291.706L162 296.529V306.176C162 307.456 161.492 308.683 160.587 309.587C159.683 310.492 158.456 311 157.176 311C147.769 310.428 138.896 306.433 132.231 299.769C125.567 293.104 121.572 284.231 121 274.824C121 273.544 121.508 272.317 122.413 271.413C123.317 270.508 124.544 270 125.824 270Z" stroke="white" stroke-width="2" stroke-linecap="round" stroke-linejoin="round"/>
<path d="M31.8235 193H41.4706L46.2941 205.059L40.2647 208.676C42.8476 213.914 47.0863 218.152 52.3235 220.735L55.9412 214.706L68 219.529V229.176C68 230.456 67.4918 231.683 66.5872 232.587C65.6826 233.492 64.4557 234 63.1765 234C53.7688 233.428 44.8957 229.433 38.2312 222.769C31.5667 216.104 27.5717 207.231 27 197.824C27 196.544 27.5082 195.317 28.4128 194.413C29.3174 193.508 30.5442 193 31.8235 193Z" stroke="white" stroke-width="2" stroke-linecap="round" stroke-linejoin="round"/>
<path d="M54 269.556C54 268.347 54.48 267.189 55.3343 266.334C56.1886 265.48 57.3473 265 58.5556 265H90.4444C91.6527 265 92.8114 265.48 93.6657 266.334C94.52 267.189 95 268.347 95 269.556V292.333C95 293.542 94.52 294.7 93.6657 295.555C92.8114 296.409 91.6527 296.889 90.4444 296.889H58.5556C57.3473 296.889 56.1886 296.409 55.3343 295.555C54.48 294.7 54 293.542 54 292.333V269.556Z" stroke="white" stroke-width="2" stroke-linecap="round" stroke-linejoin="round"/>
<path d="M54 269.556L74.5 283.222L95 269.556" stroke="white" stroke-width="2" stroke-linecap="round" stroke-linejoin="round"/>
</svg>
